<?xml version="1.0" standalone="no"?>
<!DOCTYPE svg PUBLIC "-//W3C//DTD SVG 1.0//EN" "http://www.w3.org/TR/2001/REC-SVG-20010904/DTD/svg10.dtd">
<svg xmlns="http://www.w3.org/2000/svg" xmlns:xlink="http://www.w3.org/1999/xlink" id="body_1" width="621" height="443">

<defs>
    <linearGradient transform="matrix(1 0 0 1 0 0)"  id="1" x1="14.811" y1="-22.362" x2="75.996" y2="119.406">
        <stop stop-color="#FAD961" offset="0%"/>
        <stop stop-color="#FF52C1" offset="100%"/>
    </linearGradient>
    <linearGradient transform="matrix(1 0 0 1 0 0)"  id="234" x1="50" y1="0" x2="50" y2="100">
        <stop stop-color="#00C7FA" offset="0%"/>
        <stop stop-color="#007DFA" offset="100%"/>
    </linearGradient>
    <linearGradient transform="matrix(1 0 0 1 0 0)"  id="451" x1="28.973" y1="0" x2="90.2" y2="111.244">
        <stop stop-color="#FF52C1" offset="0%"/>
        <stop stop-color="#9952FF" offset="100%"/>
    </linearGradient>
    <linearGradient transform="matrix(1 0 0 1 0 0)"  id="678" x1="14.811" y1="-22.362" x2="75.996" y2="119.406">
        <stop stop-color="#FAD961" offset="0%"/>
        <stop stop-color="#FF52C1" offset="100%"/>
    </linearGradient>
    <linearGradient transform="matrix(1 0 0 1 0 0)"  id="913" x1="14.811" y1="-22.362" x2="75.996" y2="119.406">
        <stop stop-color="#FAD961" offset="0%"/>
        <stop stop-color="#FF52C1" offset="100%"/>
    </linearGradient>
    <linearGradient transform="matrix(1 0 0 1 0 0)"  id="1148" x1="50" y1="0" x2="50" y2="100">
        <stop stop-color="#00C7FA" offset="0%"/>
        <stop stop-color="#007DFA" offset="100%"/>
    </linearGradient>
    <linearGradient transform="matrix(1 0 0 1 0 0)"  id="1366" x1="50" y1="0" x2="50" y2="100">
        <stop stop-color="#00C7FA" offset="0%"/>
        <stop stop-color="#007DFA" offset="100%"/>
    </linearGradient>
    <linearGradient transform="matrix(1 0 0 1 0 0)"  id="1584" x1="28.973" y1="0" x2="90.2" y2="111.244">
        <stop stop-color="#FF52C1" offset="0%"/>
        <stop stop-color="#9952FF" offset="100%"/>
    </linearGradient>
    <linearGradient transform="matrix(1 0 0 1 0 0)"  id="1812" x1="28.973" y1="0" x2="90.2" y2="111.244">
        <stop stop-color="#FF52C1" offset="0%"/>
        <stop stop-color="#9952FF" offset="100%"/>
    </linearGradient>
    <linearGradient transform="matrix(1 0 0 1 0 0)"  id="2040" x1="14.811" y1="-22.362" x2="75.996" y2="119.406">
        <stop stop-color="#FAD961" offset="0%"/>
        <stop stop-color="#FF52C1" offset="100%"/>
    </linearGradient>
    <linearGradient transform="matrix(1 0 0 1 0 0)"  id="2276" x1="50" y1="0" x2="50" y2="100">
        <stop stop-color="#00C7FA" offset="0%"/>
        <stop stop-color="#007DFA" offset="100%"/>
    </linearGradient>
</defs>

<g transform="matrix(0.6 0 0 0.5994588 0 0)">
	<g>
		<g transform="matrix(1 0 0 1 10 10)">
            <path d="M0 20C 0 8.954305 8.954305 0 20 0L20 0L940 0C 951.0457 0 960 8.954305 960 20L960 20L960 580C 960 591.0457 951.0457 600 940 600L940 600L20 600C 8.954305 600 0 591.0457 0 580L0 580L0 20z" stroke="none" fill="#000000" fill-rule="nonzero" />
            <path d="M0 20C 0 8.954305 8.954305 0 20 0L20 0L940 0C 951.0457 0 960 8.954305 960 20L960 20L960 580C 960 591.0457 951.0457 600 940 600L940 600L20 600C 8.954305 600 0 591.0457 0 580L0 580L0 20z" stroke="none" fill="#FFFFFF" fill-rule="nonzero" />
            <path d="M20 0L940 0C 951.046 0 960 8.954 960 20L960 20L960 64L0 64L0 20C 0 8.954 8.954 0 20 0z" stroke="none" fill="#000000" fill-rule="nonzero" />
            <path d="M20 0L940 0C 951.046 0 960 8.954 960 20L960 20L960 64L0 64L0 20C 0 8.954 8.954 0 20 0z" stroke="none" fill="#00252E" fill-rule="nonzero" />
            <path d="M72 25C 72 22.238577 74.23858 20 77 20L77 20L267 20C 269.7614 20 272 22.238577 272 25L272 25L272 39C 272 41.761425 269.7614 44 267 44L267 44L77 44C 74.23858 44 72 41.761425 72 39L72 39L72 25z" stroke="none" fill="#E1E8EE" fill-rule="nonzero" />
			<g transform="matrix(1 0 0 1 864 22)">
                <path d="M0 2C 0 0.8954305 0.8954305 0 2 0L2 0L30 0C 31.10457 0 32 0.8954305 32 2C 32 3.1045694 31.10457 4 30 4L30 4L2 4C 0.8954305 4 0 3.1045694 0 2z" stroke="none" fill="#D8D8D8" fill-rule="nonzero" />
                <path d="M0 10C 0 8.895431 0.8954305 8 2 8L2 8L30 8C 31.10457 8 32 8.895431 32 10C 32 11.104569 31.10457 12 30 12L30 12L2 12C 0.8954305 12 0 11.104569 0 10z" stroke="none" fill="#D8D8D8" fill-rule="nonzero" />
                <path d="M0 18C 0 16.89543 0.8954305 16 2 16L2 16L30 16C 31.10457 16 32 16.89543 32 18C 32 19.10457 31.10457 20 30 20L30 20L2 20C 0.8954305 20 0 19.10457 0 18z" stroke="none" fill="#D8D8D8" fill-rule="nonzero" />
			</g>
			<g transform="matrix(1 0 0 1 72 138)">
                <path d="M96 48C 96 61.254833 91.313705 72.56854 81.941124 81.941124C 72.56854 91.313705 61.254833 96 48 96C 34.745167 96 23.43146 91.313705 14.058876 81.941124C 4.686292 72.56854 0 61.254833 0 48C 0 34.745167 4.686292 23.43146 14.058876 14.058876C 23.43146 4.686292 34.745167 0 48 0C 61.254833 0 72.56854 4.686292 81.941124 14.058876C 91.313705 23.43146 96 34.745167 96 48C 96 48.558563 95.99026 49.116955 95.970764 49.675175" stroke="none" fill="url(#1)" />
				<g transform="matrix(1 0 0 1 152 12)">
                    <path d="M0 3C 0 1.3431457 1.3431457 0 3 0L3 0L112 0C 113.65685 0 115 1.3431457 115 3L115 3L115 13C 115 14.656855 113.65685 16 112 16L112 16L3 16C 1.3431457 16 0 14.656855 0 13L0 13L0 3z" stroke="none" fill="#E1E8EE" fill-rule="nonzero" />
                    <path d="M0 35C 0 33.343147 1.3431457 32 3 32L3 32L397 32C 398.65686 32 400 33.343147 400 35L400 35L400 37C 400 38.656853 398.65686 40 397 40L397 40L3 40C 1.3431457 40 0 38.656853 0 37L0 37L0 35z" stroke="none" fill="#E1E8EE" fill-rule="nonzero" />
                    <path d="M0 51C 0 49.343147 1.3431457 48 3 48L3 48L363.667 48C 365.32385 48 366.667 49.343147 366.667 51L366.667 51L366.667 53C 366.667 54.656853 365.32385 56 363.667 56L363.667 56L3 56C 1.3431457 56 0 54.656853 0 53L0 53L0 51z" stroke="none" fill="#E1E8EE" fill-rule="nonzero" />
                    <path d="M0 67C 0 65.34315 1.3431457 64 3 64L3 64L330.333 64C 331.98987 64 333.333 65.34315 333.333 67L333.333 67L333.333 69C 333.333 70.65685 331.98987 72 330.333 72L330.333 72L3 72C 1.3431457 72 0 70.65685 0 69L0 69L0 67z" stroke="none" fill="#E1E8EE" fill-rule="nonzero" />
				</g>
				<g transform="matrix(1 0 0 1 600 36)">
                    <path d="M24 12C 24 15.313708 22.828426 18.142136 20.485281 20.485281C 18.142136 22.828426 15.313708 24 12 24C 8.686292 24 5.857865 22.828426 3.514719 20.485281C 1.171573 18.142136 0 15.313708 0 12C 0 8.686292 1.171573 5.857865 3.514719 3.514719C 5.857865 1.171573 8.686292 0 12 0C 15.313708 0 18.142136 1.171573 20.485281 3.514719C 22.828426 5.857865 24 8.686292 24 12C 24 12.139641 23.997564 12.279239 23.992691 12.418794" stroke="none" fill="#A7B9C8" fill-rule="nonzero" />
                    <path d="M88 12C 88 15.313708 86.82843 18.142136 84.48528 20.485281C 82.142136 22.828426 79.31371 24 76 24C 72.686295 24 69.857864 22.828426 67.51472 20.485281C 65.17157 18.142136 64 15.313708 64 12C 64 8.686292 65.17157 5.857865 67.51472 3.514719C 69.857864 1.171573 72.686295 0 76 0C 79.31371 0 82.142136 1.171573 84.48528 3.514719C 86.82843 5.857865 88 8.686292 88 12C 88 12.139641 87.99757 12.279239 87.99269 12.418794" stroke="none" fill="#A7B9C8" fill-rule="nonzero" />
                    <path d="M56 12C 56.000004 15.313708 54.82843 18.142136 52.485283 20.485281C 50.142136 22.828426 47.31371 24 44 24C 40.686295 24 37.857864 22.828426 35.514717 20.485281C 33.171574 18.142136 32 15.313708 32 12C 32 8.686292 33.171574 5.857865 35.514717 3.514719C 37.857864 1.171573 40.686295 0 44 0C 47.31371 0 50.142136 1.171573 52.485283 3.514719C 54.82843 5.857865 56.000004 8.686292 56 12C 56.000004 12.139641 55.997566 12.279239 55.99269 12.418794" stroke="none" fill="#A7B9C8" fill-rule="nonzero" />
                    <path d="M120 12C 120 15.313708 118.82843 18.142136 116.48528 20.485281C 114.14214 22.828426 111.31371 24 108 24C 104.686295 24 101.857864 22.828426 99.51472 20.485281C 97.17157 18.142136 96 15.313708 96 12C 96 8.686292 97.17157 5.857865 99.51472 3.514719C 101.857864 1.171573 104.686295 0 108 0C 111.31371 0 114.14214 1.171573 116.48528 3.514719C 118.82843 5.857865 120 8.686292 120 12C 120 12.139641 119.99757 12.279239 119.99269 12.418794" stroke="none" fill="#A7B9C8" fill-rule="nonzero" />
                    <path d="M152 12C 152 15.313708 150.82843 18.142136 148.48528 20.485281C 146.14215 22.828426 143.31372 24 140 24C 136.6863 24 133.85786 22.828426 131.51472 20.485281C 129.17157 18.142136 128 15.313708 128 12C 128 8.686292 129.17157 5.857865 131.51472 3.514719C 133.85786 1.171573 136.6863 0 140 0C 143.31372 0 146.14215 1.171573 148.48528 3.514719C 150.82843 5.857865 152 8.686292 152 12C 152 12.139641 151.99756 12.279239 151.99269 12.418794" stroke="none" fill="#A7B9C8" fill-rule="nonzero" />
				</g>
			</g>
			<g transform="matrix(1 0 0 1 72 274)">
                <path d="M90 45C 90 57.426407 85.606606 68.03301 76.81981 76.81981C 68.03301 85.606606 57.426407 90 45 90C 32.573593 90 21.966991 85.606606 13.180195 76.81981C 4.3933983 68.03301 0 57.426407 0 45C 0 32.573593 4.3933983 21.966991 13.180195 13.180195C 21.966991 4.3933983 32.573593 0 45 0C 57.426407 0 68.03301 4.3933983 76.81981 13.180195C 85.606606 21.966991 90 32.573593 90 45C 90 45.52365 89.99086 46.047142 89.97259 46.570477" stroke="none" fill="url(#234)" />
				<g transform="matrix(1 0 0 1 149 9)">
                    <path d="M0 3C 0 1.3431457 1.3431457 0 3 0L3 0L112 0C 113.65685 0 115 1.3431457 115 3L115 3L115 13C 115 14.656855 113.65685 16 112 16L112 16L3 16C 1.3431457 16 0 14.656855 0 13L0 13L0 3z" stroke="none" fill="#E1E8EE" fill-rule="nonzero" />
                    <path d="M0 35C 0 33.343147 1.3431457 32 3 32L3 32L397 32C 398.65686 32 400 33.343147 400 35L400 35L400 37C 400 38.656853 398.65686 40 397 40L397 40L3 40C 1.3431457 40 0 38.656853 0 37L0 37L0 35z" stroke="none" fill="#E1E8EE" fill-rule="nonzero" />
                    <path d="M0 51C 0 49.343147 1.3431457 48 3 48L3 48L363.667 48C 365.32385 48 366.667 49.343147 366.667 51L366.667 51L366.667 53C 366.667 54.656853 365.32385 56 363.667 56L363.667 56L3 56C 1.3431457 56 0 54.656853 0 53L0 53L0 51z" stroke="none" fill="#E1E8EE" fill-rule="nonzero" />
                    <path d="M0 67C 0 65.34315 1.3431457 64 3 64L3 64L330.333 64C 331.98987 64 333.333 65.34315 333.333 67L333.333 67L333.333 69C 333.333 70.65685 331.98987 72 330.333 72L330.333 72L3 72C 1.3431457 72 0 70.65685 0 69L0 69L0 67z" stroke="none" fill="#E1E8EE" fill-rule="nonzero" />
				</g>
				<g transform="matrix(1 0 0 1 597 33)">
                    <path d="M24 12C 24 15.313708 22.828426 18.142136 20.485281 20.485281C 18.142136 22.828426 15.313708 24 12 24C 8.686292 24 5.857865 22.828426 3.514719 20.485281C 1.171573 18.142136 0 15.313708 0 12C 0 8.686292 1.171573 5.857865 3.514719 3.514719C 5.857865 1.171573 8.686292 0 12 0C 15.313708 0 18.142136 1.171573 20.485281 3.514719C 22.828426 5.857865 24 8.686292 24 12C 24 12.139641 23.997564 12.279239 23.992691 12.418794" stroke="none" fill="#A7B9C8" fill-rule="nonzero" />
                    <path d="M88 12C 88 15.313708 86.82843 18.142136 84.48528 20.485281C 82.142136 22.828426 79.31371 24 76 24C 72.686295 24 69.857864 22.828426 67.51472 20.485281C 65.17157 18.142136 64 15.313708 64 12C 64 8.686292 65.17157 5.857865 67.51472 3.514719C 69.857864 1.171573 72.686295 0 76 0C 79.31371 0 82.142136 1.171573 84.48528 3.514719C 86.82843 5.857865 88 8.686292 88 12C 88 12.139641 87.99757 12.279239 87.99269 12.418794" stroke="none" fill="#A7B9C8" fill-rule="nonzero" />
                    <path d="M56 12C 56.000004 15.313708 54.82843 18.142136 52.485283 20.485281C 50.142136 22.828426 47.31371 24 44 24C 40.686295 24 37.857864 22.828426 35.514717 20.485281C 33.171574 18.142136 32 15.313708 32 12C 32 8.686292 33.171574 5.857865 35.514717 3.514719C 37.857864 1.171573 40.686295 0 44 0C 47.31371 0 50.142136 1.171573 52.485283 3.514719C 54.82843 5.857865 56.000004 8.686292 56 12C 56.000004 12.139641 55.997566 12.279239 55.99269 12.418794" stroke="none" fill="#A7B9C8" fill-rule="nonzero" />
				</g>
			</g>
			<g transform="matrix(1 0 0 1 72 417)">
                <path d="M90 45C 90 57.426407 85.606606 68.03301 76.81981 76.81981C 68.03301 85.606606 57.426407 90 45 90C 32.573593 90 21.966991 85.606606 13.180195 76.81981C 4.3933983 68.03301 0 57.426407 0 45C 0 32.573593 4.3933983 21.966991 13.180195 13.180195C 21.966991 4.3933983 32.573593 0 45 0C 57.426407 0 68.03301 4.3933983 76.81981 13.180195C 85.606606 21.966991 90 32.573593 90 45C 90 45.52365 89.99086 46.047142 89.97259 46.570477" stroke="none" fill="url(#451)" />
				<g transform="matrix(1 0 0 1 149 9)">
                    <path d="M0 3C 0 1.3431457 1.3431457 0 3 0L3 0L112 0C 113.65685 0 115 1.3431457 115 3L115 3L115 13C 115 14.656855 113.65685 16 112 16L112 16L3 16C 1.3431457 16 0 14.656855 0 13L0 13L0 3z" stroke="none" fill="#E1E8EE" fill-rule="nonzero" />
                    <path d="M0 35C 0 33.343147 1.3431457 32 3 32L3 32L397 32C 398.65686 32 400 33.343147 400 35L400 35L400 37C 400 38.656853 398.65686 40 397 40L397 40L3 40C 1.3431457 40 0 38.656853 0 37L0 37L0 35z" stroke="none" fill="#E1E8EE" fill-rule="nonzero" />
                    <path d="M0 51C 0 49.343147 1.3431457 48 3 48L3 48L363.667 48C 365.32385 48 366.667 49.343147 366.667 51L366.667 51L366.667 53C 366.667 54.656853 365.32385 56 363.667 56L363.667 56L3 56C 1.3431457 56 0 54.656853 0 53L0 53L0 51z" stroke="none" fill="#E1E8EE" fill-rule="nonzero" />
                    <path d="M0 67C 0 65.34315 1.3431457 64 3 64L3 64L330.333 64C 331.98987 64 333.333 65.34315 333.333 67L333.333 67L333.333 69C 333.333 70.65685 331.98987 72 330.333 72L330.333 72L3 72C 1.3431457 72 0 70.65685 0 69L0 69L0 67z" stroke="none" fill="#E1E8EE" fill-rule="nonzero" />
				</g>
				<g transform="matrix(1 0 0 1 597 33)">
                    <path d="M24 12C 24 15.313708 22.828426 18.142136 20.485281 20.485281C 18.142136 22.828426 15.313708 24 12 24C 8.686292 24 5.857865 22.828426 3.514719 20.485281C 1.171573 18.142136 0 15.313708 0 12C 0 8.686292 1.171573 5.857865 3.514719 3.514719C 5.857865 1.171573 8.686292 0 12 0C 15.313708 0 18.142136 1.171573 20.485281 3.514719C 22.828426 5.857865 24 8.686292 24 12C 24 12.139641 23.997564 12.279239 23.992691 12.418794" stroke="none" fill="#A7B9C8" fill-rule="nonzero" />
                    <path d="M88 12C 88 15.313708 86.82843 18.142136 84.48528 20.485281C 82.142136 22.828426 79.31371 24 76 24C 72.686295 24 69.857864 22.828426 67.51472 20.485281C 65.17157 18.142136 64 15.313708 64 12C 64 8.686292 65.17157 5.857865 67.51472 3.514719C 69.857864 1.171573 72.686295 0 76 0C 79.31371 0 82.142136 1.171573 84.48528 3.514719C 86.82843 5.857865 88 8.686292 88 12C 88 12.139641 87.99757 12.279239 87.99269 12.418794" stroke="none" fill="#A7B9C8" fill-rule="nonzero" />
                    <path d="M56 12C 56.000004 15.313708 54.82843 18.142136 52.485283 20.485281C 50.142136 22.828426 47.31371 24 44 24C 40.686295 24 37.857864 22.828426 35.514717 20.485281C 33.171574 18.142136 32 15.313708 32 12C 32 8.686292 33.171574 5.857865 35.514717 3.514719C 37.857864 1.171573 40.686295 0 44 0C 47.31371 0 50.142136 1.171573 52.485283 3.514719C 54.82843 5.857865 56.000004 8.686292 56 12C 56.000004 12.139641 55.997566 12.279239 55.99269 12.418794" stroke="none" fill="#A7B9C8" fill-rule="nonzero" />
                    <path d="M120 12C 120 15.313708 118.82843 18.142136 116.48528 20.485281C 114.14214 22.828426 111.31371 24 108 24C 104.686295 24 101.857864 22.828426 99.51472 20.485281C 97.17157 18.142136 96 15.313708 96 12C 96 8.686292 97.17157 5.857865 99.51472 3.514719C 101.857864 1.171573 104.686295 0 108 0C 111.31371 0 114.14214 1.171573 116.48528 3.514719C 118.82843 5.857865 120 8.686292 120 12C 120 12.139641 119.99757 12.279239 119.99269 12.418794" stroke="none" fill="#A7B9C8" fill-rule="nonzero" />
				</g>
			</g>
		</g>
		<g transform="matrix(1 0 0 1 706 218)">
            <path d="M0 17.067C 0 7.6411557 7.6411557 0 17.067 0L17.067 0L302.933 0C 312.35886 0 320 7.6411557 320 17.067L320 17.067L320 494.933C 320 504.35886 312.35886 512 302.933 512L302.933 512L17.067 512C 7.6411557 512 0 504.35886 0 494.933L0 494.933L0 17.067z" stroke="none" fill="#000000" fill-rule="nonzero" />
            <path d="M0 17.067C 0 7.6411557 7.6411557 0 17.067 0L17.067 0L302.933 0C 312.35886 0 320 7.6411557 320 17.067L320 17.067L320 494.933C 320 504.35886 312.35886 512 302.933 512L302.933 512L17.067 512C 7.6411557 512 0 504.35886 0 494.933L0 494.933L0 17.067z" stroke="none" fill="#FFFFFF" fill-rule="nonzero" />
		</g>
		<g transform="matrix(1 0 0 1 706 218)">
            <path d="M17.067 0L302.93298 0C 312.36 0 320 7.641 320 17.067L320 17.067L320 54.613L0 54.613L0 17.067C 0 7.64 7.641 0 17.067 0z" stroke="none" fill="#000000" fill-rule="nonzero" />
            <path d="M17.067 0L302.93298 0C 312.36 0 320 7.641 320 17.067L320 17.067L320 54.613L0 54.613L0 17.067C 0 7.64 7.641 0 17.067 0z" stroke="none" fill="#00252E" fill-rule="nonzero" />
		</g>
		<g transform="matrix(1 0 0 1 738.133 236.773)">
            <path d="M0 4.267C 0 1.9104011 1.9104011 0 4.267 0L4.267 0L99.733 0C 102.0896 0 104 1.9104011 104 4.267L104 4.267L104 16.213C 104 18.5696 102.0896 20.48 99.733 20.48L99.733 20.48L4.267 20.48C 1.9104011 20.48 0 18.5696 0 16.213L0 16.213L0 4.267z" stroke="none" fill="#E1E8EE" fill-rule="nonzero" />
			<g transform="matrix(1 0 0 1 226.427 1.707)">
                <path d="M0 1.707C 0 0.7642499 0.7642499 0 1.707 0L1.707 0L25.599998 0C 26.54275 0 27.307 0.7642499 27.307 1.707L27.307 1.707L27.307 1.7060001C 27.307 2.64875 26.54275 3.413 25.599998 3.413L25.599998 3.413L1.707 3.413C 0.7642499 3.413 0 2.64875 0 1.7060001L0 1.7060001L0 1.707z" stroke="none" fill="#D8D8D8" fill-rule="nonzero" />
                <path d="M0 8.534C 0 7.59125 0.7642499 6.827 1.707 6.827L1.707 6.827L25.599998 6.827C 26.54275 6.827 27.307 7.59125 27.307 8.534L27.307 8.534L27.307 8.533C 27.307 9.47575 26.54275 10.24 25.599998 10.24L25.599998 10.24L1.707 10.24C 0.7642499 10.24 0 9.47575 0 8.533L0 8.533L0 8.534z" stroke="none" fill="#D8D8D8" fill-rule="nonzero" />
                <path d="M0 15.36C 0 14.41725 0.7642499 13.653 1.707 13.653L1.707 13.653L25.599998 13.653C 26.54275 13.653 27.307 14.41725 27.307 15.36L27.307 15.36L27.307 15.359C 27.307 16.30175 26.54275 17.066 25.599998 17.066L25.599998 17.066L1.707 17.066C 0.7642499 17.066 0 16.30175 0 15.359L0 15.359L0 15.36z" stroke="none" fill="#D8D8D8" fill-rule="nonzero" />
			</g>
		</g>
		<g transform="matrix(1 0 0 1 738 326)">
            <path d="M30 15C 30 19.142136 28.535534 22.67767 25.606602 25.606602C 22.67767 28.535534 19.142136 30 15 30C 10.857864 30 7.3223305 28.535534 4.3933983 25.606602C 1.4644661 22.67767 0 19.142136 0 15C 0 10.857864 1.4644661 7.3223305 4.3933983 4.3933983C 7.3223305 1.4644661 10.857864 0 15 0C 19.142136 0 22.67767 1.4644661 25.606602 4.3933983C 28.535534 7.3223305 30 10.857864 30 15C 30 15.174551 29.996956 15.349049 29.990864 15.523493" stroke="none" fill="url(#678)" />
			<g transform="matrix(1 0 0 1 46 3)">
                <path d="M0 0.92C 0 0.41189805 0.41189805 0 0.92 0L0.92 0L56.58 0C 57.0881 0 57.5 0.41189805 57.5 0.92L57.5 0.92L57.5 4.413C 57.5 4.921102 57.0881 5.333 56.58 5.333L56.58 5.333L0.92 5.333C 0.41189805 5.333 0 4.921102 0 4.413L0 4.413L0 0.92z" stroke="none" fill="#E1E8EE" fill-rule="nonzero" />
                <path d="M0 11.587C 0 11.078897 0.41189805 10.667 0.92 10.667L0.92 10.667L199.08 10.667C 199.5881 10.667 200 11.078897 200 11.587L200 11.587L200 12.414C 200 12.922102 199.5881 13.334 199.08 13.334L199.08 13.334L0.92 13.334C 0.41189805 13.334 0 12.922102 0 12.414L0 12.414L0 11.587z" stroke="none" fill="#E1E8EE" fill-rule="nonzero" />
                <path d="M0 16.92C 0 16.411898 0.41189805 16 0.92 16L0.92 16L182.413 16C 182.9211 16 183.333 16.411898 183.333 16.92L183.333 16.92L183.333 17.747C 183.333 18.255102 182.9211 18.667 182.413 18.667L182.413 18.667L0.92 18.667C 0.41189805 18.667 0 18.255102 0 17.747L0 17.747L0 16.92z" stroke="none" fill="#E1E8EE" fill-rule="nonzero" />
                <path d="M0 22.253C 0 21.744898 0.41189805 21.333 0.92 21.333L0.92 21.333L165.74701 21.333C 166.25511 21.333 166.667 21.744898 166.667 22.253L166.667 22.253L166.667 23.08C 166.667 23.588102 166.25511 24 165.74701 24L165.74701 24L0.92 24C 0.41189805 24 0 23.588102 0 23.08L0 23.08L0 22.253z" stroke="none" fill="#E1E8EE" fill-rule="nonzero" />
			</g>
		</g>
		<g transform="matrix(1 0 0 1 738 464)">
            <path d="M30 15C 30 19.142136 28.535534 22.67767 25.606602 25.606602C 22.67767 28.535534 19.142136 30 15 30C 10.857864 30 7.3223305 28.535534 4.3933983 25.606602C 1.4644661 22.67767 0 19.142136 0 15C 0 10.857864 1.4644661 7.3223305 4.3933983 4.3933983C 7.3223305 1.4644661 10.857864 0 15 0C 19.142136 0 22.67767 1.4644661 25.606602 4.3933983C 28.535534 7.3223305 30 10.857864 30 15C 30 15.174551 29.996956 15.349049 29.990864 15.523493" stroke="none" fill="url(#913)" />
			<g transform="matrix(1 0 0 1 46 3)">
                <path d="M0 0.92C 0 0.41189805 0.41189805 0 0.92 0L0.92 0L56.58 0C 57.0881 0 57.5 0.41189805 57.5 0.92L57.5 0.92L57.5 4.413C 57.5 4.921102 57.0881 5.333 56.58 5.333L56.58 5.333L0.92 5.333C 0.41189805 5.333 0 4.921102 0 4.413L0 4.413L0 0.92z" stroke="none" fill="#E1E8EE" fill-rule="nonzero" />
                <path d="M0 11.587C 0 11.078897 0.41189805 10.667 0.92 10.667L0.92 10.667L199.08 10.667C 199.5881 10.667 200 11.078897 200 11.587L200 11.587L200 12.414C 200 12.922102 199.5881 13.334 199.08 13.334L199.08 13.334L0.92 13.334C 0.41189805 13.334 0 12.922102 0 12.414L0 12.414L0 11.587z" stroke="none" fill="#E1E8EE" fill-rule="nonzero" />
                <path d="M0 16.92C 0 16.411898 0.41189805 16 0.92 16L0.92 16L182.413 16C 182.9211 16 183.333 16.411898 183.333 16.92L183.333 16.92L183.333 17.747C 183.333 18.255102 182.9211 18.667 182.413 18.667L182.413 18.667L0.92 18.667C 0.41189805 18.667 0 18.255102 0 17.747L0 17.747L0 16.92z" stroke="none" fill="#E1E8EE" fill-rule="nonzero" />
                <path d="M0 22.253C 0 21.744898 0.41189805 21.333 0.92 21.333L0.92 21.333L165.74701 21.333C 166.25511 21.333 166.667 21.744898 166.667 22.253L166.667 22.253L166.667 23.08C 166.667 23.588102 166.25511 24 165.74701 24L165.74701 24L0.92 24C 0.41189805 24 0 23.588102 0 23.08L0 23.08L0 22.253z" stroke="none" fill="#E1E8EE" fill-rule="nonzero" />
			</g>
		</g>
		<g transform="matrix(1 0 0 1 738 372)">
			<g transform="matrix(1 0 0 1 46 3)">
                <path d="M0 0.92C 0 0.41189805 0.41189805 0 0.92 0L0.92 0L56.58 0C 57.0881 0 57.5 0.41189805 57.5 0.92L57.5 0.92L57.5 4.413C 57.5 4.921102 57.0881 5.333 56.58 5.333L56.58 5.333L0.92 5.333C 0.41189805 5.333 0 4.921102 0 4.413L0 4.413L0 0.92z" stroke="none" fill="#E1E8EE" fill-rule="nonzero" />
                <path d="M0 11.587C 0 11.078897 0.41189805 10.667 0.92 10.667L0.92 10.667L199.08 10.667C 199.5881 10.667 200 11.078897 200 11.587L200 11.587L200 12.414C 200 12.922102 199.5881 13.334 199.08 13.334L199.08 13.334L0.92 13.334C 0.41189805 13.334 0 12.922102 0 12.414L0 12.414L0 11.587z" stroke="none" fill="#E1E8EE" fill-rule="nonzero" />
                <path d="M0 16.92C 0 16.411898 0.41189805 16 0.92 16L0.92 16L182.413 16C 182.9211 16 183.333 16.411898 183.333 16.92L183.333 16.92L183.333 17.747C 183.333 18.255102 182.9211 18.667 182.413 18.667L182.413 18.667L0.92 18.667C 0.41189805 18.667 0 18.255102 0 17.747L0 17.747L0 16.92z" stroke="none" fill="#E1E8EE" fill-rule="nonzero" />
                <path d="M0 22.253C 0 21.744898 0.41189805 21.333 0.92 21.333L0.92 21.333L165.74701 21.333C 166.25511 21.333 166.667 21.744898 166.667 22.253L166.667 22.253L166.667 23.08C 166.667 23.588102 166.25511 24 165.74701 24L165.74701 24L0.92 24C 0.41189805 24 0 23.588102 0 23.08L0 23.08L0 22.253z" stroke="none" fill="#E1E8EE" fill-rule="nonzero" />
			</g>
            <path d="M30 15C 30 19.142136 28.535534 22.67767 25.606602 25.606602C 22.67767 28.535534 19.142136 30 15 30C 10.857864 30 7.3223305 28.535534 4.3933983 25.606602C 1.4644661 22.67767 0 19.142136 0 15C 0 10.857864 1.4644661 7.3223305 4.3933983 4.3933983C 7.3223305 1.4644661 10.857864 0 15 0C 19.142136 0 22.67767 1.4644661 25.606602 4.3933983C 28.535534 7.3223305 30 10.857864 30 15C 30 15.174551 29.996956 15.349049 29.990864 15.523493" stroke="none" fill="url(#1148)" />
		</g>
		<g transform="matrix(1 0 0 1 738 510)">
			<g transform="matrix(1 0 0 1 46 3)">
                <path d="M0 0.92C 0 0.41189805 0.41189805 0 0.92 0L0.92 0L56.58 0C 57.0881 0 57.5 0.41189805 57.5 0.92L57.5 0.92L57.5 4.413C 57.5 4.921102 57.0881 5.333 56.58 5.333L56.58 5.333L0.92 5.333C 0.41189805 5.333 0 4.921102 0 4.413L0 4.413L0 0.92z" stroke="none" fill="#E1E8EE" fill-rule="nonzero" />
                <path d="M0 11.587C 0 11.078897 0.41189805 10.667 0.92 10.667L0.92 10.667L199.08 10.667C 199.5881 10.667 200 11.078897 200 11.587L200 11.587L200 12.414C 200 12.922102 199.5881 13.334 199.08 13.334L199.08 13.334L0.92 13.334C 0.41189805 13.334 0 12.922102 0 12.414L0 12.414L0 11.587z" stroke="none" fill="#E1E8EE" fill-rule="nonzero" />
                <path d="M0 16.92C 0 16.411898 0.41189805 16 0.92 16L0.92 16L182.413 16C 182.9211 16 183.333 16.411898 183.333 16.92L183.333 16.92L183.333 17.747C 183.333 18.255102 182.9211 18.667 182.413 18.667L182.413 18.667L0.92 18.667C 0.41189805 18.667 0 18.255102 0 17.747L0 17.747L0 16.92z" stroke="none" fill="#E1E8EE" fill-rule="nonzero" />
                <path d="M0 22.253C 0 21.744898 0.41189805 21.333 0.92 21.333L0.92 21.333L165.74701 21.333C 166.25511 21.333 166.667 21.744898 166.667 22.253L166.667 22.253L166.667 23.08C 166.667 23.588102 166.25511 24 165.74701 24L165.74701 24L0.92 24C 0.41189805 24 0 23.588102 0 23.08L0 23.08L0 22.253z" stroke="none" fill="#E1E8EE" fill-rule="nonzero" />
			</g>
            <path d="M30 15C 30 19.142136 28.535534 22.67767 25.606602 25.606602C 22.67767 28.535534 19.142136 30 15 30C 10.857864 30 7.3223305 28.535534 4.3933983 25.606602C 1.4644661 22.67767 0 19.142136 0 15C 0 10.857864 1.4644661 7.3223305 4.3933983 4.3933983C 7.3223305 1.4644661 10.857864 0 15 0C 19.142136 0 22.67767 1.4644661 25.606602 4.3933983C 28.535534 7.3223305 30 10.857864 30 15C 30 15.174551 29.996956 15.349049 29.990864 15.523493" stroke="none" fill="url(#1366)" />
		</g>
		<g transform="matrix(1 0 0 1 738 418)">
			<g transform="matrix(1 0 0 1 46 3)">
                <path d="M0 0.92C 0 0.41189805 0.41189805 0 0.92 0L0.92 0L56.58 0C 57.0881 0 57.5 0.41189805 57.5 0.92L57.5 0.92L57.5 4.413C 57.5 4.921102 57.0881 5.333 56.58 5.333L56.58 5.333L0.92 5.333C 0.41189805 5.333 0 4.921102 0 4.413L0 4.413L0 0.92z" stroke="none" fill="#E1E8EE" fill-rule="nonzero" />
                <path d="M0 11.587C 0 11.078897 0.41189805 10.667 0.92 10.667L0.92 10.667L199.08 10.667C 199.5881 10.667 200 11.078897 200 11.587L200 11.587L200 12.414C 200 12.922102 199.5881 13.334 199.08 13.334L199.08 13.334L0.92 13.334C 0.41189805 13.334 0 12.922102 0 12.414L0 12.414L0 11.587z" stroke="none" fill="#E1E8EE" fill-rule="nonzero" />
                <path d="M0 16.92C 0 16.411898 0.41189805 16 0.92 16L0.92 16L182.413 16C 182.9211 16 183.333 16.411898 183.333 16.92L183.333 16.92L183.333 17.747C 183.333 18.255102 182.9211 18.667 182.413 18.667L182.413 18.667L0.92 18.667C 0.41189805 18.667 0 18.255102 0 17.747L0 17.747L0 16.92z" stroke="none" fill="#E1E8EE" fill-rule="nonzero" />
                <path d="M0 22.253C 0 21.744898 0.41189805 21.333 0.92 21.333L0.92 21.333L165.74701 21.333C 166.25511 21.333 166.667 21.744898 166.667 22.253L166.667 22.253L166.667 23.08C 166.667 23.588102 166.25511 24 165.74701 24L165.74701 24L0.92 24C 0.41189805 24 0 23.588102 0 23.08L0 23.08L0 22.253z" stroke="none" fill="#E1E8EE" fill-rule="nonzero" />
			</g>
            <path d="M30 15C 30 19.142136 28.535534 22.67767 25.606602 25.606602C 22.67767 28.535534 19.142136 30 15 30C 10.857864 30 7.3223305 28.535534 4.3933983 25.606602C 1.4644661 22.67767 0 19.142136 0 15C 0 10.857864 1.4644661 7.3223305 4.3933983 4.3933983C 7.3223305 1.4644661 10.857864 0 15 0C 19.142136 0 22.67767 1.4644661 25.606602 4.3933983C 28.535534 7.3223305 30 10.857864 30 15C 30 15.174551 29.996956 15.349049 29.990864 15.523493" stroke="none" fill="url(#1584)" />
		</g>
		<g transform="matrix(1 0 0 1 738 556)">
			<g transform="matrix(1 0 0 1 46 3)">
                <path d="M0 0.92C 0 0.41189805 0.41189805 0 0.92 0L0.92 0L56.58 0C 57.0881 0 57.5 0.41189805 57.5 0.92L57.5 0.92L57.5 4.413C 57.5 4.921102 57.0881 5.333 56.58 5.333L56.58 5.333L0.92 5.333C 0.41189805 5.333 0 4.921102 0 4.413L0 4.413L0 0.92z" stroke="none" fill="#E1E8EE" fill-rule="nonzero" />
                <path d="M0 11.587C 0 11.078897 0.41189805 10.667 0.92 10.667L0.92 10.667L199.08 10.667C 199.5881 10.667 200 11.078897 200 11.587L200 11.587L200 12.414C 200 12.922102 199.5881 13.334 199.08 13.334L199.08 13.334L0.92 13.334C 0.41189805 13.334 0 12.922102 0 12.414L0 12.414L0 11.587z" stroke="none" fill="#E1E8EE" fill-rule="nonzero" />
                <path d="M0 16.92C 0 16.411898 0.41189805 16 0.92 16L0.92 16L182.413 16C 182.9211 16 183.333 16.411898 183.333 16.92L183.333 16.92L183.333 17.747C 183.333 18.255102 182.9211 18.667 182.413 18.667L182.413 18.667L0.92 18.667C 0.41189805 18.667 0 18.255102 0 17.747L0 17.747L0 16.92z" stroke="none" fill="#E1E8EE" fill-rule="nonzero" />
                <path d="M0 22.253C 0 21.744898 0.41189805 21.333 0.92 21.333L0.92 21.333L165.74701 21.333C 166.25511 21.333 166.667 21.744898 166.667 22.253L166.667 22.253L166.667 23.08C 166.667 23.588102 166.25511 24 165.74701 24L165.74701 24L0.92 24C 0.41189805 24 0 23.588102 0 23.08L0 23.08L0 22.253z" stroke="none" fill="#E1E8EE" fill-rule="nonzero" />
			</g>
            <path d="M30 15C 30 19.142136 28.535534 22.67767 25.606602 25.606602C 22.67767 28.535534 19.142136 30 15 30C 10.857864 30 7.3223305 28.535534 4.3933983 25.606602C 1.4644661 22.67767 0 19.142136 0 15C 0 10.857864 1.4644661 7.3223305 4.3933983 4.3933983C 7.3223305 1.4644661 10.857864 0 15 0C 19.142136 0 22.67767 1.4644661 25.606602 4.3933983C 28.535534 7.3223305 30 10.857864 30 15C 30 15.174551 29.996956 15.349049 29.990864 15.523493" stroke="none" fill="url(#1812)" />
		</g>
		<g transform="matrix(1 0 0 1 738 602)">
            <path d="M30 15C 30 19.142136 28.535534 22.67767 25.606602 25.606602C 22.67767 28.535534 19.142136 30 15 30C 10.857864 30 7.3223305 28.535534 4.3933983 25.606602C 1.4644661 22.67767 0 19.142136 0 15C 0 10.857864 1.4644661 7.3223305 4.3933983 4.3933983C 7.3223305 1.4644661 10.857864 0 15 0C 19.142136 0 22.67767 1.4644661 25.606602 4.3933983C 28.535534 7.3223305 30 10.857864 30 15C 30 15.174551 29.996956 15.349049 29.990864 15.523493" stroke="none" fill="url(#2040)" />
			<g transform="matrix(1 0 0 1 46 3)">
                <path d="M0 0.92C 0 0.41189805 0.41189805 0 0.92 0L0.92 0L56.58 0C 57.0881 0 57.5 0.41189805 57.5 0.92L57.5 0.92L57.5 4.413C 57.5 4.921102 57.0881 5.333 56.58 5.333L56.58 5.333L0.92 5.333C 0.41189805 5.333 0 4.921102 0 4.413L0 4.413L0 0.92z" stroke="none" fill="#E1E8EE" fill-rule="nonzero" />
                <path d="M0 11.587C 0 11.078897 0.41189805 10.667 0.92 10.667L0.92 10.667L199.08 10.667C 199.5881 10.667 200 11.078897 200 11.587L200 11.587L200 12.414C 200 12.922102 199.5881 13.334 199.08 13.334L199.08 13.334L0.92 13.334C 0.41189805 13.334 0 12.922102 0 12.414L0 12.414L0 11.587z" stroke="none" fill="#E1E8EE" fill-rule="nonzero" />
                <path d="M0 16.92C 0 16.411898 0.41189805 16 0.92 16L0.92 16L182.413 16C 182.9211 16 183.333 16.411898 183.333 16.92L183.333 16.92L183.333 17.747C 183.333 18.255102 182.9211 18.667 182.413 18.667L182.413 18.667L0.92 18.667C 0.41189805 18.667 0 18.255102 0 17.747L0 17.747L0 16.92z" stroke="none" fill="#E1E8EE" fill-rule="nonzero" />
                <path d="M0 22.253C 0 21.744898 0.41189805 21.333 0.92 21.333L0.92 21.333L165.74701 21.333C 166.25511 21.333 166.667 21.744898 166.667 22.253L166.667 22.253L166.667 23.08C 166.667 23.588102 166.25511 24 165.74701 24L165.74701 24L0.92 24C 0.41189805 24 0 23.588102 0 23.08L0 23.08L0 22.253z" stroke="none" fill="#E1E8EE" fill-rule="nonzero" />
			</g>
		</g>
		<g transform="matrix(1 0 0 1 738 648)">
			<g transform="matrix(1 0 0 1 46 3)">
                <path d="M0 0.92C 0 0.41189805 0.41189805 0 0.92 0L0.92 0L56.58 0C 57.0881 0 57.5 0.41189805 57.5 0.92L57.5 0.92L57.5 4.413C 57.5 4.921102 57.0881 5.333 56.58 5.333L56.58 5.333L0.92 5.333C 0.41189805 5.333 0 4.921102 0 4.413L0 4.413L0 0.92z" stroke="none" fill="#E1E8EE" fill-rule="nonzero" />
                <path d="M0 11.587C 0 11.078897 0.41189805 10.667 0.92 10.667L0.92 10.667L199.08 10.667C 199.5881 10.667 200 11.078897 200 11.587L200 11.587L200 12.414C 200 12.922102 199.5881 13.334 199.08 13.334L199.08 13.334L0.92 13.334C 0.41189805 13.334 0 12.922102 0 12.414L0 12.414L0 11.587z" stroke="none" fill="#E1E8EE" fill-rule="nonzero" />
                <path d="M0 16.92C 0 16.411898 0.41189805 16 0.92 16L0.92 16L182.413 16C 182.9211 16 183.333 16.411898 183.333 16.92L183.333 16.92L183.333 17.747C 183.333 18.255102 182.9211 18.667 182.413 18.667L182.413 18.667L0.92 18.667C 0.41189805 18.667 0 18.255102 0 17.747L0 17.747L0 16.92z" stroke="none" fill="#E1E8EE" fill-rule="nonzero" />
                <path d="M0 22.253C 0 21.744898 0.41189805 21.333 0.92 21.333L0.92 21.333L165.74701 21.333C 166.25511 21.333 166.667 21.744898 166.667 22.253L166.667 22.253L166.667 23.08C 166.667 23.588102 166.25511 24 165.74701 24L165.74701 24L0.92 24C 0.41189805 24 0 23.588102 0 23.08L0 23.08L0 22.253z" stroke="none" fill="#E1E8EE" fill-rule="nonzero" />
			</g>
            <path d="M30 15C 30 19.142136 28.535534 22.67767 25.606602 25.606602C 22.67767 28.535534 19.142136 30 15 30C 10.857864 30 7.3223305 28.535534 4.3933983 25.606602C 1.4644661 22.67767 0 19.142136 0 15C 0 10.857864 1.4644661 7.3223305 4.3933983 4.3933983C 7.3223305 1.4644661 10.857864 0 15 0C 19.142136 0 22.67767 1.4644661 25.606602 4.3933983C 28.535534 7.3223305 30 10.857864 30 15C 30 15.174551 29.996956 15.349049 29.990864 15.523493" stroke="none" fill="url(#2276)" />
		</g>
	</g>
</g>
</svg>